<svg width="18" height="24" viewBox="0 0 18 24" fill="none" xmlns="http://www.w3.org/2000/svg">
<path d="M9 4.82812C6.7125 4.82812 4.85156 6.68906 4.85156 8.97656C4.85156 11.2641 6.7125 13.125 9 13.125C11.2875 13.125 13.1484 11.2641 13.1484 8.97656C13.1484 6.68906 11.2875 4.82812 9 4.82812ZM9 11.625C7.54219 11.625 6.35156 10.4391 6.35156 8.97656C6.35156 7.51406 7.54219 6.32812 9 6.32812C10.4578 6.32812 11.6484 7.51406 11.6484 8.97656C11.6484 10.4391 10.4578 11.625 9 11.625ZM9 0C4.05 0 0.0234375 4.02656 0.0234375 8.97656C0.0234375 10.5891 0.782813 12.6234 2.33906 15.1969C3.63281 17.3344 5.23594 19.4578 6.64688 21.3281C7.29844 22.1906 7.9125 23.0063 8.38594 23.6813C8.52656 23.8828 8.75625 24 9 24C9.24375 24 9.47344 23.8828 9.61406 23.6813C10.0875 23.0063 10.7016 22.1906 11.3531 21.3281C12.7641 19.4578 14.3625 17.3344 15.6609 15.1969C17.2172 12.6234 17.9766 10.5891 17.9766 8.97656C17.9766 4.02656 13.95 0 9 0ZM10.1578 20.4234C9.75 20.9625 9.35625 21.4828 9 21.9656C8.64375 21.4828 8.25 20.9625 7.84219 20.4234C5.175 16.8891 1.52344 12.0469 1.52344 8.97656C1.52344 4.85625 4.87969 1.5 9 1.5C13.1203 1.5 16.4766 4.85156 16.4766 8.97656C16.4766 12.0469 12.825 16.8891 10.1578 20.4234Z" fill="#2A3744"/>
</svg>
