<svg width="24" height="22" viewBox="0 0 24 22" fill="none" xmlns="http://www.w3.org/2000/svg">
<path d="M13.0605 1.24997C12.7792 0.968764 12.3977 0.810791 12 0.810791C11.6022 0.810791 11.2208 0.968764 10.9395 1.24997L0.968971 11.219C0.899239 11.2887 0.843925 11.3715 0.806186 11.4626C0.768447 11.5537 0.749023 11.6514 0.749023 11.75C0.749023 11.8486 0.768447 11.9462 0.806186 12.0373C0.843925 12.1285 0.899239 12.2112 0.968971 12.281C1.1098 12.4218 1.30081 12.5009 1.49997 12.5009C1.59859 12.5009 1.69624 12.4815 1.78735 12.4438C1.87846 12.406 1.96124 12.3507 2.03097 12.281L2.99997 11.3105V19.25C2.99997 19.8467 3.23702 20.419 3.65898 20.841C4.08094 21.2629 4.65323 21.5 5.24997 21.5H18.75C19.3467 21.5 19.919 21.2629 20.341 20.841C20.7629 20.419 21 19.8467 21 19.25V11.3105L21.969 12.281C22.1098 12.4218 22.3008 12.5009 22.5 12.5009C22.6991 12.5009 22.8901 12.4218 23.031 12.281C23.1718 12.1401 23.2509 11.9491 23.2509 11.75C23.2509 11.5508 23.1718 11.3598 23.031 11.219L19.5 7.68947V2.74997C19.5 2.55106 19.421 2.36029 19.2803 2.21964C19.1396 2.07899 18.9489 1.99997 18.75 1.99997H17.25C17.0511 1.99997 16.8603 2.07899 16.7196 2.21964C16.579 2.36029 16.5 2.55106 16.5 2.74997V4.68947L13.0605 1.24997ZM19.5 9.81047V19.25C19.5 19.4489 19.421 19.6396 19.2803 19.7803C19.1396 19.921 18.9489 20 18.75 20H5.24997C5.05106 20 4.86029 19.921 4.71964 19.7803C4.57899 19.6396 4.49997 19.4489 4.49997 19.25V9.81047L12 2.31047L19.5 9.81047Z" fill="#2A3744"/>
</svg>
