<svg width="43" height="48" viewBox="0 0 43 48" fill="none" xmlns="http://www.w3.org/2000/svg">
<path d="M16.7932 21.1342H11.5571C11.1429 21.1342 10.8071 21.47 10.8071 21.8842V37.1925C10.8071 37.6067 11.1429 37.9425 11.5571 37.9425H16.7932C17.2074 37.9425 17.5432 37.6067 17.5432 37.1925V21.8842C17.5432 21.47 17.2074 21.1342 16.7932 21.1342ZM16.0432 36.4425H12.3071V22.6342H16.0432V36.4425ZM7.0706 26.3972H1.83447C1.42029 26.3972 1.08447 26.733 1.08447 27.1472V37.1923C1.08447 37.6065 1.42029 37.9423 1.83447 37.9423H7.0706C7.48479 37.9423 7.8206 37.6065 7.8206 37.1923V27.1472C7.8206 26.733 7.48479 26.3972 7.0706 26.3972ZM6.3206 36.4424H2.58447V27.8973H6.3206V36.4424ZM35.1951 3.45907C30.3191 7.78995 24.9366 11.6457 19.1706 14.9322C13.7202 18.0388 7.78516 20.7184 1.53007 22.8966C1.4485 22.9251 1.36516 22.9385 1.28341 22.9385C0.973099 22.9385 0.682942 22.7446 0.57513 22.435C0.438911 22.0439 0.645536 21.6164 1.03675 21.4801C13.7058 17.068 24.8428 10.6399 34.1696 2.36351L32.0914 2.47638C31.6768 2.49982 31.3244 2.18163 31.3019 1.7681C31.2795 1.35448 31.5965 1.00095 32.0102 0.97854L36.1976 0.751196C36.4216 0.738446 36.6404 0.828165 36.792 0.99429C36.9437 1.16032 37.0128 1.3857 36.9804 1.60817L36.3762 5.7581C36.3219 6.13132 36.0014 6.4002 35.635 6.4002C35.599 6.4002 35.5627 6.39767 35.5261 6.39223C35.1162 6.3326 34.8323 5.95198 34.8919 5.5421L35.1951 3.45907ZM36.9883 26.3469V11.4447C36.9883 11.0305 36.6525 10.6947 36.2383 10.6947H31.0021C30.5879 10.6947 30.2521 11.0305 30.2521 11.4447V24.7909C29.21 24.8797 28.2081 25.1111 27.2658 25.4655V16.3884C27.2658 15.9742 26.9299 15.6384 26.5158 15.6384H21.2796C20.8654 15.6384 20.5296 15.9742 20.5296 16.3884V32.4788C20.1635 33.5869 19.9648 34.7705 19.9648 35.9997C19.9649 42.2032 25.0118 47.2502 31.2153 47.2502C37.4189 47.2502 42.4658 42.2032 42.4658 35.9997C42.4658 31.9053 40.2669 28.3151 36.9883 26.3469ZM35.4883 12.1947V25.593C34.327 25.1144 33.069 24.8245 31.7521 24.7624V12.1947H35.4883ZM22.0297 17.1385H25.7658V26.1603C24.2836 26.9845 23.0058 28.1333 22.0297 29.5109V17.1385ZM31.2153 45.7502C25.8389 45.7502 21.4649 41.3762 21.4649 35.9997C21.4649 30.6232 25.8389 26.2492 31.2153 26.2492C36.5918 26.2492 40.9658 30.6232 40.9658 35.9997C40.9658 41.3762 36.5917 45.7502 31.2153 45.7502ZM31.2154 27.0613C26.2868 27.0613 22.2769 31.0711 22.2769 35.9997C22.2769 40.9283 26.2867 44.9381 31.2154 44.9381C36.1442 44.9381 40.1538 40.9283 40.1538 35.9997C40.1538 31.0711 36.1441 27.0613 31.2154 27.0613ZM31.2154 43.4381C27.1139 43.4381 23.7769 40.1013 23.7769 35.9997C23.7769 31.8981 27.1139 28.5613 31.2154 28.5613C35.317 28.5613 38.6538 31.8981 38.6538 35.9997C38.6538 40.1013 35.317 43.4381 31.2154 43.4381ZM33.9333 37.5689C33.7944 37.8095 33.5422 37.944 33.283 37.944C33.1558 37.944 33.0269 37.9115 32.9088 37.8434L30.8404 36.6492C30.6083 36.5152 30.4654 36.2677 30.4654 35.9997V32.9016C30.4654 32.4874 30.8013 32.1516 31.2154 32.1516C31.6296 32.1516 31.9654 32.4874 31.9654 32.9016V35.5667L33.6588 36.5445C34.0174 36.7516 34.1404 37.2102 33.9333 37.5689ZM30.4654 30.1869V29.4802C30.4654 29.066 30.8013 28.7302 31.2154 28.7302C31.6296 28.7302 31.9654 29.066 31.9654 29.4802V30.1869C31.9654 30.6011 31.6296 30.9369 31.2154 30.9369C30.8013 30.9369 30.4654 30.6011 30.4654 30.1869ZM34.7953 32.4199C34.5024 32.1269 34.5024 31.6521 34.7953 31.3592L35.295 30.8595C35.5879 30.5667 36.0627 30.5667 36.3557 30.8595C36.6485 31.1524 36.6485 31.6272 36.3557 31.9202L35.856 32.4199C35.7095 32.5663 35.5176 32.6395 35.3256 32.6395C35.1336 32.6395 34.9418 32.5662 34.7953 32.4199ZM36.3558 40.0795C36.6486 40.3724 36.6485 40.8472 36.3557 41.1401C36.2092 41.2865 36.0173 41.3598 35.8254 41.3598C35.6334 41.3598 35.4415 41.2865 35.2951 41.14L34.7954 40.6402C34.5025 40.3474 34.5026 39.8725 34.7955 39.5796C35.0884 39.2869 35.5633 39.2869 35.8561 39.5797L36.3558 40.0795ZM27.6353 39.5796C27.9282 39.8725 27.9283 40.3474 27.6354 40.6402L27.1357 41.14C26.9893 41.2865 26.7973 41.3598 26.6054 41.3598C26.4134 41.3598 26.2216 41.2866 26.0751 41.1401C25.7823 40.8472 25.7822 40.3724 26.075 40.0795L26.5747 39.5797C26.8675 39.2868 27.3423 39.2867 27.6353 39.5796ZM27.6354 31.3591C27.9283 31.652 27.9283 32.1268 27.6354 32.4198C27.489 32.5662 27.2971 32.6394 27.1051 32.6394C26.9131 32.6394 26.7212 32.5662 26.5747 32.4198L26.075 31.9201C25.7822 31.6271 25.7822 31.1524 26.075 30.8594C26.368 30.5666 26.8428 30.5666 27.1357 30.8594L27.6354 31.3591ZM38.4849 35.9997C38.4849 36.4139 38.1491 36.7497 37.7349 36.7497H37.0282C36.614 36.7497 36.2782 36.4139 36.2782 35.9997C36.2782 35.5855 36.614 35.2497 37.0282 35.2497H37.7349C38.1491 35.2497 38.4849 35.5855 38.4849 35.9997ZM31.9654 41.8125V42.5192C31.9654 42.9334 31.6296 43.2692 31.2154 43.2692C30.8013 43.2692 30.4654 42.9334 30.4654 42.5192V41.8125C30.4654 41.3983 30.8013 41.0625 31.2154 41.0625C31.6296 41.0625 31.9654 41.3983 31.9654 41.8125ZM25.4026 36.7497H24.6959C24.2817 36.7497 23.9459 36.4139 23.9459 35.9997C23.9459 35.5855 24.2817 35.2497 24.6959 35.2497H25.4026C25.8168 35.2497 26.1526 35.5855 26.1526 35.9997C26.1526 36.4139 25.8168 36.7497 25.4026 36.7497Z" fill="#2A3744"/>
</svg>
