<svg width="22" height="24" viewBox="0 0 22 24" fill="none" xmlns="http://www.w3.org/2000/svg">
<path d="M15.8511 23.1562C15.8511 23.38 15.7622 23.5946 15.604 23.7529C15.4458 23.9111 15.2312 24 15.0074 24H4.12769C3.19005 23.9989 2.29112 23.626 1.6281 22.963C0.965083 22.3 0.592131 21.4011 0.591064 20.4634V3.53662C0.592119 2.59901 0.965039 1.7001 1.62802 1.03708C2.29099 0.374072 3.18989 0.00110419 4.1275 0L15.0072 0C15.231 0 15.4456 0.0888948 15.6038 0.247129C15.762 0.405362 15.8509 0.619974 15.8509 0.84375C15.8509 1.06753 15.762 1.28214 15.6038 1.44037C15.4456 1.59861 15.231 1.6875 15.0072 1.6875H4.1275C3.63725 1.68805 3.16724 1.88304 2.82058 2.2297C2.47392 2.57636 2.27892 3.04637 2.27838 3.53662V20.4634C2.27894 20.9537 2.47393 21.4237 2.82059 21.7703C3.16725 22.117 3.63726 22.312 4.1275 22.3125H15.0072C15.118 22.3125 15.2277 22.3343 15.3301 22.3767C15.4325 22.4191 15.5256 22.4812 15.6039 22.5596C15.6823 22.6379 15.7445 22.7309 15.7869 22.8333C15.8293 22.9357 15.8511 23.0454 15.8511 23.1562ZM21.1621 11.4034L15.6777 5.919C15.5192 5.76213 15.305 5.6744 15.082 5.67498C14.859 5.67556 14.6453 5.76442 14.4876 5.92212C14.3299 6.07982 14.241 6.29353 14.2404 6.51655C14.2399 6.73957 14.3276 6.95374 14.4845 7.11225L18.5284 11.1562H8.69378C8.47001 11.1562 8.2554 11.2451 8.09716 11.4034C7.93893 11.5616 7.85003 11.7762 7.85003 12C7.85003 12.2238 7.93893 12.4384 8.09716 12.5966C8.2554 12.7549 8.47001 12.8438 8.69378 12.8438H18.5284L14.4844 16.8878C14.4054 16.966 14.3426 17.059 14.2997 17.1616C14.2567 17.2641 14.2345 17.3741 14.2342 17.4853C14.2339 17.5965 14.2556 17.7066 14.298 17.8094C14.3404 17.9121 14.4027 18.0055 14.4813 18.0841C14.5599 18.1627 14.6533 18.225 14.7561 18.2675C14.8588 18.3099 14.9689 18.3316 15.0801 18.3313C15.1913 18.331 15.3013 18.3087 15.4039 18.2658C15.5064 18.2228 15.5994 18.1601 15.6776 18.081L21.162 12.5967C21.2404 12.5183 21.3025 12.4253 21.345 12.3229C21.3874 12.2206 21.4092 12.1108 21.4092 12C21.4092 11.8892 21.3874 11.7795 21.345 11.6771C21.3026 11.5747 21.2404 11.4817 21.1621 11.4034Z" fill="#2A3744"/>
</svg>
