<svg width="20" height="24" viewBox="0 0 20 24" fill="none" xmlns="http://www.w3.org/2000/svg">
<path d="M10.0001 0.75C7.83448 0.774186 5.76684 1.65632 4.25072 3.20292C2.7346 4.74952 1.89379 6.83431 1.91272 9V14.0917C1.9136 14.5372 1.78453 14.9733 1.54132 15.3465L0.620765 16.7579C0.396782 17.1011 0.269812 17.4985 0.253308 17.908C0.236804 18.3175 0.331379 18.7239 0.527015 19.084C0.713233 19.4376 0.992874 19.7332 1.33549 19.9388C1.6781 20.1444 2.07056 20.252 2.47011 20.25H6.32602C6.49902 21.0968 6.95918 21.8578 7.62867 22.4043C8.29816 22.9508 9.13587 23.2493 10.0001 23.2493C10.8644 23.2493 11.7021 22.9508 12.3716 22.4043C13.0411 21.8578 13.5012 21.0968 13.6742 20.25H17.5301C17.9297 20.252 18.3221 20.1444 18.6647 19.9388C19.0074 19.7332 19.287 19.4376 19.4732 19.084C19.6688 18.7241 19.7633 18.3179 19.7468 17.9086C19.7303 17.4993 19.6034 17.1021 19.3795 16.7591L18.4589 15.347C18.2157 14.9737 18.0866 14.5377 18.0875 14.0922V9C18.1064 6.83431 17.2656 4.74952 15.7495 3.20292C14.2334 1.65632 12.1658 0.774186 10.0001 0.75ZM10.0001 21.75C9.53489 21.7494 9.08124 21.605 8.70135 21.3364C8.32147 21.0679 8.03395 20.6884 7.87822 20.25H12.122C11.9663 20.6884 11.6788 21.0679 11.2989 21.3364C10.919 21.605 10.4653 21.7494 10.0001 21.75ZM18.1226 17.5782C18.1998 17.6947 18.2435 17.83 18.2491 17.9696C18.2547 18.1092 18.2218 18.2477 18.1541 18.3699C18.0951 18.4845 18.0056 18.5806 17.8955 18.6476C17.7854 18.7147 17.659 18.7501 17.5301 18.75H2.47011C2.34122 18.7501 2.21479 18.7147 2.10471 18.6476C1.99463 18.5806 1.90516 18.4845 1.84611 18.3699C1.77845 18.2475 1.7456 18.109 1.75116 17.9693C1.75671 17.8296 1.80045 17.694 1.87761 17.5774L2.79816 16.1653C3.20061 15.5487 3.41435 14.8281 3.41317 14.0917V9C3.3939 7.2321 4.0765 5.52872 5.31129 4.26336C6.54608 2.998 8.23228 2.27396 10.0001 2.25C11.768 2.27384 13.4543 2.99783 14.6892 4.2632C15.9241 5.52857 16.6068 7.23203 16.5875 9V14.0917C16.5863 14.8281 16.8001 15.5487 17.2025 16.1653L18.1226 17.5782Z" fill="#2A3744"/>
</svg>
