<svg width="43" height="43" viewBox="0 0 43 43" fill="none" xmlns="http://www.w3.org/2000/svg">
<path d="M42.2182 10.5546H40.6546V8.98944C40.6546 7.26625 39.252 5.86371 37.5273 5.86371C35.8026 5.86371 34.4001 7.26625 34.4001 8.98944V10.5546H32.8365V8.98944C32.8365 7.26625 31.4339 5.86371 29.7092 5.86371C27.9845 5.86371 26.582 7.26625 26.582 8.98944V10.5546H25.0184V8.98944C25.0184 7.26625 23.6158 5.86371 21.8911 5.86371C20.1664 5.86371 18.7639 7.26625 18.7639 8.98944V10.5546H17.2V8.98944C17.2 7.26625 15.7975 5.86371 14.0728 5.86371C12.3481 5.86371 10.9455 7.26625 10.9455 8.98944V10.5546H9.38189V8.98944C9.38189 7.26625 7.97936 5.86371 6.25465 5.86371C4.52995 5.86371 3.12741 7.26625 3.12741 8.98944V10.5546H1.56362V9.77276H0V11.3364V16.0273V17.591H1.56362V16.8091H3.12724V34.0106C3.12724 35.7338 4.52978 37.1364 6.25448 37.1364C7.97919 37.1364 9.38173 35.7338 9.38173 34.0106V33.2273H10.9453V34.0106C10.9453 35.7338 12.3479 37.1364 14.0726 37.1364C15.7973 37.1364 17.1998 35.7338 17.1998 34.0106V33.2273H18.7635V34.0106C18.7635 35.7338 20.166 37.1364 21.8907 37.1364C23.6154 37.1364 25.0179 35.7338 25.0179 34.0106V33.2273H26.5816V34.0106C26.5816 35.7338 27.9841 37.1364 29.7088 37.1364C31.4335 37.1364 32.836 35.7338 32.836 34.0106V33.2273H34.4V34.0106C34.4 35.7338 35.8025 37.1364 37.5272 37.1364C39.2519 37.1364 40.6545 35.7338 40.6545 34.0106V16.8091H42.2181C42.6502 16.8091 42.9999 16.4593 42.9999 16.0272V11.3363C43 10.9042 42.6503 10.5546 42.2182 10.5546Z" fill="url(#paint0_linear_957_7033)"/>
<path d="M34.3996 12.1182H32.8359V15.2454H34.3996V12.1182Z" fill="url(#paint1_linear_957_7033)"/>
<path d="M26.5832 12.1182H25.0195V15.2454H26.5832V12.1182Z" fill="url(#paint2_linear_957_7033)"/>
<path d="M18.7648 12.1182H17.2012V15.2454H18.7648V12.1182Z" fill="url(#paint3_linear_957_7033)"/>
<path d="M10.9464 12.1182H9.38281V15.2454H10.9464V12.1182Z" fill="url(#paint4_linear_957_7033)"/>
<path d="M3.12807 12.1182H1.56445V15.2454H3.12807V12.1182Z" fill="url(#paint5_linear_957_7033)"/>
<path d="M7.81865 34.0107C7.81865 34.8719 7.11704 35.5728 6.25503 35.5728C5.39301 35.5728 4.69141 34.8719 4.69141 34.0107V16.0272V11.3363V8.98936C4.69141 8.1281 5.39301 7.42725 6.25503 7.42725C7.11704 7.42725 7.81865 8.1281 7.81865 8.98936V11.3363V16.0272V31.6636V33.2272V34.0107Z" fill="url(#paint6_linear_957_7033)"/>
<path d="M10.9445 16.8091H9.38086V31.6637H10.9445V16.8091Z" fill="white"/>
<path d="M15.6351 34.0107C15.6351 34.8719 14.9334 35.5728 14.0714 35.5728C13.2094 35.5728 12.5078 34.8719 12.5078 34.0107V16.0272V11.3363V8.98936C12.5078 8.1281 13.2094 7.42725 14.0714 7.42725C14.9334 7.42725 15.6351 8.1281 15.6351 8.98936V11.3363V16.0272V34.0107Z" fill="url(#paint7_linear_957_7033)"/>
<path d="M18.7628 16.8091H17.1992V31.6637H18.7628V16.8091Z" fill="white"/>
<path d="M23.4554 34.0107C23.4554 34.8718 22.7538 35.5728 21.8917 35.5728C21.0297 35.5728 20.3281 34.8719 20.3281 34.0107V33.2273V31.6637V16.0272V11.3363V8.98936C20.3281 8.1281 21.0297 7.42725 21.8917 7.42725C22.7538 7.42725 23.4554 8.1281 23.4554 8.98936V11.3363V16.0272V31.6636V33.2272V34.0107Z" fill="url(#paint8_linear_957_7033)"/>
<path d="M26.5832 16.8091H25.0195V31.6637H26.5832V16.8091Z" fill="white"/>
<path d="M31.2737 34.0107C31.2737 34.8718 30.5721 35.5728 29.7101 35.5728C28.8481 35.5728 28.1465 34.8719 28.1465 34.0107V16.0272V11.3363V8.98936C28.1465 8.1281 28.8481 7.42725 29.7101 7.42725C30.5721 7.42725 31.2737 8.1281 31.2737 8.98936V11.3363V16.0272V31.6636V33.2272V34.0107Z" fill="url(#paint9_linear_957_7033)"/>
<path d="M34.3996 16.8091H32.8359V31.6637H34.3996V16.8091Z" fill="white"/>
<path d="M39.0901 34.0107C39.0901 34.8718 38.3885 35.5728 37.5265 35.5728C36.6645 35.5728 35.9629 34.8719 35.9629 34.0107V16.0272V11.3363V8.98936C35.9629 8.1281 36.6645 7.42725 37.5265 7.42725C38.3885 7.42725 39.0901 8.1281 39.0901 8.98936V11.3363V16.0272V34.0107Z" fill="url(#paint10_linear_957_7033)"/>
<path d="M41.4342 12.1182H40.6523V15.2454H41.4342V12.1182Z" fill="url(#paint11_linear_957_7033)"/>
<defs>
<linearGradient id="paint0_linear_957_7033" x1="17.3366" y1="8.47602" x2="23.5501" y2="63.1275" gradientUnits="userSpaceOnUse">
<stop stop-color="#FD7900"/>
<stop offset="1" stop-color="#FDC500" stop-opacity="0"/>
</linearGradient>
<linearGradient id="paint1_linear_957_7033" x1="33.4664" y1="12.3794" x2="35.043" y2="17.4222" gradientUnits="userSpaceOnUse">
<stop stop-color="white"/>
<stop offset="1" stop-color="#FDC500" stop-opacity="0"/>
</linearGradient>
<linearGradient id="paint2_linear_957_7033" x1="25.6499" y1="12.3794" x2="27.2266" y2="17.4222" gradientUnits="userSpaceOnUse">
<stop stop-color="white"/>
<stop offset="1" stop-color="#FDC500" stop-opacity="0"/>
</linearGradient>
<linearGradient id="paint3_linear_957_7033" x1="17.8316" y1="12.3794" x2="19.4083" y2="17.4222" gradientUnits="userSpaceOnUse">
<stop stop-color="white"/>
<stop offset="1" stop-color="#FDC500" stop-opacity="0"/>
</linearGradient>
<linearGradient id="paint4_linear_957_7033" x1="10.0132" y1="12.3794" x2="11.5899" y2="17.4222" gradientUnits="userSpaceOnUse">
<stop stop-color="white"/>
<stop offset="1" stop-color="#FDC500" stop-opacity="0"/>
</linearGradient>
<linearGradient id="paint5_linear_957_7033" x1="2.19487" y1="12.3794" x2="3.77154" y2="17.4222" gradientUnits="userSpaceOnUse">
<stop stop-color="white"/>
<stop offset="1" stop-color="#FDC500" stop-opacity="0"/>
</linearGradient>
<linearGradient id="paint6_linear_957_7033" x1="5.95224" y1="9.77834" x2="29.4787" y2="26.4996" gradientUnits="userSpaceOnUse">
<stop stop-color="white"/>
<stop offset="1" stop-color="#FDC500" stop-opacity="0"/>
</linearGradient>
<linearGradient id="paint7_linear_957_7033" x1="13.7686" y1="9.77834" x2="37.2951" y2="26.4996" gradientUnits="userSpaceOnUse">
<stop stop-color="white"/>
<stop offset="1" stop-color="#FDC500" stop-opacity="0"/>
</linearGradient>
<linearGradient id="paint8_linear_957_7033" x1="21.589" y1="9.77834" x2="45.1154" y2="26.4996" gradientUnits="userSpaceOnUse">
<stop stop-color="white"/>
<stop offset="1" stop-color="#FDC500" stop-opacity="0"/>
</linearGradient>
<linearGradient id="paint9_linear_957_7033" x1="29.4073" y1="9.77834" x2="52.9337" y2="26.4996" gradientUnits="userSpaceOnUse">
<stop stop-color="white"/>
<stop offset="1" stop-color="#FDC500" stop-opacity="0"/>
</linearGradient>
<linearGradient id="paint10_linear_957_7033" x1="37.2237" y1="9.77834" x2="60.7501" y2="26.4996" gradientUnits="userSpaceOnUse">
<stop stop-color="white"/>
<stop offset="1" stop-color="#FDC500" stop-opacity="0"/>
</linearGradient>
<linearGradient id="paint11_linear_957_7033" x1="40.9676" y1="12.3794" x2="43.4561" y2="16.359" gradientUnits="userSpaceOnUse">
<stop stop-color="white"/>
<stop offset="1" stop-color="#FDC500" stop-opacity="0"/>
</linearGradient>
</defs>
</svg>
